<?xml version="1.0" encoding="utf-8"?>
<!-- Generator: Adobe Illustrator 16.0.3, SVG Export Plug-In . SVG Version: 6.00 Build 0)  -->
<!DOCTYPE svg PUBLIC "-//W3C//DTD SVG 1.1//EN" "http://www.w3.org/Graphics/SVG/1.1/DTD/svg11.dtd">
<svg version="1.1" id="OBJECTS" xmlns="http://www.w3.org/2000/svg" xmlns:xlink="http://www.w3.org/1999/xlink" x="0px" y="0px"
	 width="500px" height="500px" viewBox="0 0 500 500" enable-background="new 0 0 500 500" xml:space="preserve">
<g id="XMLID_707_">
	<g id="XMLID_708_">
		<g id="XMLID_1045_">
			<text transform="matrix(1 0 0 1 141.188 286.606)" fill="#FDE385" font-family="'PlayfairDisplaySC-Regular'" font-size="32">EL DIAMANTE</text>
		</g>
		<g id="XMLID_714_">
			
				<text transform="matrix(1 0 0 1 220.8335 298.9458)" fill="#906E31" font-family="'Montserrat-Light'" font-size="10.4991" letter-spacing="2">JOYERIA</text>
		</g>
		<g id="XMLID_709_">
			<path id="XMLID_713_" fill="#906E31" d="M213.809,295.127c-2.727,0.695-3.29,1.26-3.984,3.984
				c-0.695-2.725-1.259-3.289-3.984-3.984c2.726-0.693,3.289-1.258,3.984-3.984C210.519,293.87,211.083,294.434,213.809,295.127z"/>
			<path id="XMLID_712_" fill="#906E31" d="M294.272,295.127c-2.726,0.695-3.289,1.26-3.984,3.984
				c-0.694-2.725-1.258-3.289-3.984-3.984c2.727-0.693,3.29-1.258,3.984-3.984C290.983,293.87,291.546,294.434,294.272,295.127z"/>
		</g>
	</g>
	<g id="XMLID_1034_">
		<g id="XMLID_601_">
			<linearGradient id="XMLID_4_" gradientUnits="userSpaceOnUse" x1="250.0547" y1="173.3086" x2="250.0547" y2="185.7694">
				<stop  offset="0.0391" style="stop-color:#FDE385"/>
				<stop  offset="1" style="stop-color:#906E31"/>
			</linearGradient>
			<path id="XMLID_979_" fill="url(#XMLID_4_)" d="M250.055,175.269c-6.188,0-11.948,1.19-16.855,3.218l0.223,8.543
				c4.911-3.321,10.584-5.227,16.633-5.227s11.722,1.905,16.632,5.227l0.223-8.543C262.003,176.458,256.244,175.269,250.055,175.269
				z"/>
			<linearGradient id="XMLID_5_" gradientUnits="userSpaceOnUse" x1="250.0547" y1="161.1758" x2="250.0547" y2="176.6671">
				<stop  offset="0.0391" style="stop-color:#FDE385"/>
				<stop  offset="1" style="stop-color:#906E31"/>
			</linearGradient>
			<path id="XMLID_615_" fill="url(#XMLID_5_)" d="M233.566,177.143c5.038-1.957,10.714-2.999,16.489-2.999
				c5.799,0,11.498,1.051,16.552,3.023l0.771-3.561l2.065-8.453l-8.695,6.62l-0.433-8.587l-6.807,7.729l-3.454-8.371l-3.454,8.371
				l-6.807-7.729l-0.434,8.587l-8.694-6.62l2.065,8.453L233.566,177.143z"/>
		</g>
		<g id="XMLID_1033_">
			<g id="XMLID_1035_">
				<linearGradient id="XMLID_6_" gradientUnits="userSpaceOnUse" x1="231.0156" y1="234.8359" x2="231.0156" y2="253.3044">
					<stop  offset="0.0391" style="stop-color:#FDE385"/>
					<stop  offset="1" style="stop-color:#906E31"/>
				</linearGradient>
				<path id="XMLID_613_" fill="url(#XMLID_6_)" d="M228.634,246.028c-2.641-0.709-5.422-1.949-6.723-4.533
					c-1.012-2.009-0.911-4.514-0.142-6.645s2.142-3.942,3.613-5.586c-4.03,1.509-7.634,4.323-10.226,7.984
					c-2.371,3.35-3.839,8.195-1.669,11.701c1.053,1.701,2.802,2.775,4.616,3.361c3.489,1.127,7.245,0.631,10.807-0.188
					c3.563-0.819,7.096-1.956,10.735-2.092c3.658-0.139,7.248,0.908,9.955,3.646c-1.451-4.33-3.671-4.657-7.794-5.421
					C237.427,247.443,232.959,247.19,228.634,246.028z"/>
				<linearGradient id="XMLID_7_" gradientUnits="userSpaceOnUse" x1="227.6978" y1="232.5859" x2="227.6978" y2="244.6465">
					<stop  offset="0.0391" style="stop-color:#FDE385"/>
					<stop  offset="1" style="stop-color:#906E31"/>
				</linearGradient>
				<path id="XMLID_977_" fill="url(#XMLID_7_)" d="M223.57,236.854c0.134-2.021,1.072-3.978,2.564-5.348
					c-0.443,0.407-0.433,1.704-0.413,2.248c0.027,0.788,0.248,1.513,0.573,2.227c0.672,1.474,1.886,2.62,2.981,3.778
					c1.348,1.425,2.573,2.95,2.568,5.109c0.013-0.264-5.472-0.519-7.338-3.717C223.758,239.871,223.471,238.337,223.57,236.854z"/>
			</g>
			<g id="XMLID_1037_">
				
					<linearGradient id="XMLID_8_" gradientUnits="userSpaceOnUse" x1="691.8325" y1="234.8359" x2="691.8325" y2="253.3044" gradientTransform="matrix(-1 0 0 1 960.9268 0)">
					<stop  offset="0.0391" style="stop-color:#FDE385"/>
					<stop  offset="1" style="stop-color:#906E31"/>
				</linearGradient>
				<path id="XMLID_1043_" fill="url(#XMLID_8_)" d="M271.476,246.028c2.64-0.709,5.422-1.949,6.722-4.533
					c1.012-2.009,0.912-4.514,0.143-6.645s-2.142-3.942-3.613-5.586c4.03,1.509,7.634,4.323,10.226,7.984
					c2.371,3.35,3.839,8.195,1.669,11.701c-1.053,1.701-2.803,2.775-4.616,3.361c-3.489,1.127-7.245,0.631-10.808-0.188
					c-3.562-0.819-7.095-1.956-10.734-2.092c-3.658-0.139-7.249,0.908-9.955,3.646c1.451-4.33,3.671-4.657,7.793-5.421
					C262.683,247.443,267.151,247.19,271.476,246.028z"/>
				
					<linearGradient id="XMLID_9_" gradientUnits="userSpaceOnUse" x1="688.5142" y1="232.5859" x2="688.5142" y2="244.6465" gradientTransform="matrix(-1 0 0 1 960.9268 0)">
					<stop  offset="0.0391" style="stop-color:#FDE385"/>
					<stop  offset="1" style="stop-color:#906E31"/>
				</linearGradient>
				<path id="XMLID_1038_" fill="url(#XMLID_9_)" d="M276.541,236.854c-0.134-2.021-1.072-3.978-2.565-5.348
					c0.444,0.407,0.433,1.704,0.414,2.248c-0.028,0.788-0.249,1.513-0.574,2.227c-0.672,1.474-1.885,2.62-2.981,3.778
					c-1.348,1.425-2.572,2.95-2.567,5.109c-0.014-0.264,5.471-0.519,7.337-3.717C276.352,239.871,276.638,238.337,276.541,236.854z"
					/>
			</g>
		</g>
		<g id="XMLID_1050_">
			<linearGradient id="XMLID_10_" gradientUnits="userSpaceOnUse" x1="229.9556" y1="194.1973" x2="249.6577" y2="194.1973">
				<stop  offset="0.0391" style="stop-color:#FDE385"/>
				<stop  offset="1" style="stop-color:#906E31"/>
			</linearGradient>
			<path id="XMLID_1051_" fill="url(#XMLID_10_)" d="M231.337,199.93c1.836,1.235,3.871,2.643,6.012,4.156v-0.312l0.905-0.675
				l10.455-7.796l0.285-0.212c0.063-1.399,0.13-2.755,0.203-4.011c0.145-2.669,0.312-4.97,0.46-6.773l-19.702,14.69
				C230.404,199.299,230.862,199.607,231.337,199.93z"/>
			<linearGradient id="XMLID_11_" gradientUnits="userSpaceOnUse" x1="229.1001" y1="215.2583" x2="237.3491" y2="215.2583">
				<stop  offset="0.0391" style="stop-color:#FDE385"/>
				<stop  offset="1" style="stop-color:#906E31"/>
			</linearGradient>
			<path id="XMLID_1052_" fill="url(#XMLID_11_)" d="M230.296,229.223c2.073-1.78,4.47-3.776,7.053-5.871v-16.188
				c-2.581-2.095-4.978-4.09-7.051-5.869c-0.419-0.356-0.805-0.69-1.198-1.028v29.984
				C229.493,229.912,229.877,229.579,230.296,229.223z"/>
			<linearGradient id="XMLID_12_" gradientUnits="userSpaceOnUse" x1="250.4517" y1="194.1968" x2="270.1548" y2="194.1968">
				<stop  offset="0.0391" style="stop-color:#FDE385"/>
				<stop  offset="1" style="stop-color:#906E31"/>
			</linearGradient>
			<path id="XMLID_1053_" fill="url(#XMLID_12_)" d="M268.773,199.93c0.476-0.323,0.933-0.631,1.382-0.932l-19.703-14.69
				c0.149,1.803,0.316,4.104,0.461,6.773c0.073,1.256,0.14,2.612,0.203,4.012l0.283,0.211l10.457,7.796l0.905,0.675v0.311
				C264.902,202.573,266.936,201.166,268.773,199.93z"/>
			<linearGradient id="XMLID_13_" gradientUnits="userSpaceOnUse" x1="262.7612" y1="215.2583" x2="271.0093" y2="215.2583">
				<stop  offset="0.0391" style="stop-color:#FDE385"/>
				<stop  offset="1" style="stop-color:#906E31"/>
			</linearGradient>
			<path id="XMLID_1054_" fill="url(#XMLID_13_)" d="M269.811,201.294c-2.072,1.779-4.469,3.774-7.05,5.869v16.188
				c2.582,2.095,4.979,4.091,7.053,5.871c0.418,0.356,0.804,0.689,1.195,1.027v-29.984
				C270.617,200.604,270.231,200.938,269.811,201.294z"/>
			<linearGradient id="XMLID_14_" gradientUnits="userSpaceOnUse" x1="229.9585" y1="236.3257" x2="249.6558" y2="236.3257">
				<stop  offset="0.0391" style="stop-color:#FDE385"/>
				<stop  offset="1" style="stop-color:#906E31"/>
			</linearGradient>
			<path id="XMLID_1055_" fill="url(#XMLID_14_)" d="M249.194,239.439c-0.074-1.256-0.141-2.613-0.204-4.014l-0.28-0.209
				l-10.455-7.796l-0.905-0.675v-0.305c-2.14,1.512-4.174,2.918-6.01,4.153c-0.475,0.323-0.933,0.63-1.381,0.931l19.697,14.687
				C249.506,244.408,249.338,242.108,249.194,239.439z"/>
			<linearGradient id="XMLID_15_" gradientUnits="userSpaceOnUse" x1="250.4536" y1="236.3257" x2="270.1519" y2="236.3257">
				<stop  offset="0.0391" style="stop-color:#FDE385"/>
				<stop  offset="1" style="stop-color:#906E31"/>
			</linearGradient>
			<path id="XMLID_1056_" fill="url(#XMLID_15_)" d="M268.77,230.593c-1.835-1.234-3.869-2.641-6.009-4.153v0.305l-0.905,0.675
				l-10.457,7.796l-0.278,0.208c-0.063,1.401-0.131,2.758-0.204,4.015c-0.145,2.669-0.313,4.969-0.463,6.772l19.698-14.687
				C269.703,231.224,269.246,230.916,268.77,230.593z"/>
		</g>
		
			<linearGradient id="XMLID_16_" gradientUnits="userSpaceOnUse" x1="574.0513" y1="413.9458" x2="610.355" y2="413.9458" gradientTransform="matrix(0 1 -1 0 664.001 -376.9429)">
			<stop  offset="0.0391" style="stop-color:#FDE385"/>
			<stop  offset="1" style="stop-color:#906E31"/>
		</linearGradient>
		<polygon id="XMLID_1036_" fill="url(#XMLID_16_)" points="239.599,225.616 239.599,204.904 250.054,197.108 260.511,204.904 
			260.511,225.616 250.054,233.412 		"/>
	</g>
</g>
</svg>
